<?xml version="1.0" encoding="UTF-8" standalone="no"?>
<svg
   id="Layer_1"
   version="1.1"
   viewBox="0 0 1960000 1254400"
   width="1960000"
   height="1254400"
   xmlns="http://www.w3.org/2000/svg"
   xmlns:svg="http://www.w3.org/2000/svg">
  <!-- Generator: Adobe Illustrator 29.8.4, SVG Export Plug-In . SVG Version: 2.1.1 Build 6)  -->
  <defs
     id="defs1">
    <style
       id="style1">
      .st0 {
        fill: #111;
      }

      .st1 {
        stroke-width: 2px;
      }

      .st1, .st2, .st3, .st4 {
        stroke: #4a8fff;
      }

      .st1, .st3, .st4 {
        fill: none;
      }

      .st1, .st4 {
        stroke-linecap: square;
      }

      .st5 {
        fill: #050505;
      }

      .st6 {
        fill: #4a8fff;
      }

      .st7, .st8 {
        font-size: 34px;
        letter-spacing: .28em;
      }

      .st7, .st8, .st9 {
        font-family: DMMono-Medium, 'DM Mono';
        font-weight: 500;
      }

      .st7, .st10, .st11 {
        fill: #fff;
      }

      .st2 {
        fill: #3a51a3;
      }

      .st2, .st12, .st9, .st13, .st11 {
        isolation: isolate;
      }

      .st2, .st14, .st10, .st11 {
        font-family: Arial-Black, 'Arial Black';
        font-weight: 800;
      }

      .st2, .st10, .st11 {
        font-size: 190px;
        letter-spacing: -.04em;
      }

      .st9 {
        font-size: 24px;
        letter-spacing: .2em;
      }

      .st15 {
        fill: #f2f2f2;
        stroke: #e4e4e4;
      }

      .st13, .st14, .st16 {
        display: none;
      }

      .st14 {
        font-size: 12px;
      }

      .st4 {
        stroke-width: 4px;
      }
    </style>
  </defs>
  <rect
     width="1400"
     height="1120"
     id="rect1"
     x="0"
     y="0" />
  <text
     class="st9"
     id="text1"
     x="46"
     y="48"><tspan
       x="46"
       y="48"
       id="tspan1">OPTION A — SYNE 800</tspan></text>
  <g
     id="g11">
    <rect
       class="st5"
       x="15"
       y="35"
       width="1370"
       height="440"
       rx="20"
       ry="20"
       id="rect2" />
    <g
       id="g10">
      <line
         class="st4"
         x1="150"
         y1="90"
         x2="1170"
         y2="90"
         id="line2" />
      <line
         class="st4"
         x1="150"
         y1="90"
         x2="150"
         y2="398"
         id="line3" />
      <line
         class="st4"
         x1="150"
         y1="398"
         x2="760"
         y2="398"
         id="line4" />
      <g
         class="st12"
         id="g6">
        <text
           class="st11"
           transform="translate(230,275)"
           id="text4"><tspan
             x="0"
             y="0"
             id="tspan4">spe</tspan></text>
        <g
           class="st13"
           id="g4">
          <path
             class="st6"
             d="m 598.22,152.07 h 25.27 V 275 h -25.27 z m 52.63,63.08 -0.19,-10.64 82.84,70.49 h -36.48 l -73.72,-64.6 65.55,-58.33 h 35.91 z"
             id="path4" />
        </g>
        <text
           class="st2"
           transform="translate(583.59,275)"
           id="text5"><tspan
             x="0"
             y="0"
             id="tspan5">K</tspan></text>
        <text
           class="st10"
           transform="translate(731.6,275)"
           id="text6"><tspan
             x="0"
             y="0"
             id="tspan6">set</tspan></text>
      </g>
      <g
         class="st12"
         id="g7">
        <text
           class="st7"
           transform="translate(190,368)"
           id="text7"><tspan
             x="0"
             y="0"
             id="tspan7">SPEC</tspan></text>
      </g>
      <line
         class="st1"
         x1="338"
         y1="351"
         x2="388"
         y2="351"
         id="line7" />
      <g
         class="st12"
         id="g8">
        <text
           class="st7"
           transform="translate(404,368)"
           id="text8"><tspan
             x="0"
             y="0"
             id="tspan8">BUILD</tspan></text>
      </g>
      <line
         class="st1"
         x1="603"
         y1="351"
         x2="653"
         y2="351"
         id="line8" />
      <g
         class="st12"
         id="g9">
        <text
           class="st7"
           transform="translate(672,368)"
           id="text9"><tspan
             x="0"
             y="0"
             id="tspan9">SHIP</tspan></text>
      </g>
    </g>
  </g>
  <g
     class="st16"
     id="g26">
    <rect
       class="st15"
       x="15"
       y="505"
       width="1370"
       height="440"
       rx="20"
       ry="20"
       id="rect11" />
    <g
       id="g25">
      <line
         class="st4"
         x1="150"
         y1="560"
         x2="1170"
         y2="560"
         id="line11" />
      <line
         class="st4"
         x1="150"
         y1="560"
         x2="150"
         y2="868"
         id="line12" />
      <line
         class="st4"
         x1="150"
         y1="868"
         x2="760"
         y2="868"
         id="line13" />
      <g
         class="st12"
         id="g21">
        <g
           class="st12"
           id="g15">
          <path
             class="st0"
             d="m 237.6,713.65 h 22.8 c 1.39,4.31 4.27,7.82 8.65,10.54 4.37,2.72 10.1,4.08 17.2,4.08 4.81,0 8.55,-0.44 11.21,-1.33 2.66,-0.88 4.49,-2.19 5.51,-3.9 1.01,-1.71 1.52,-3.64 1.52,-5.79 0,-2.66 -0.83,-4.72 -2.47,-6.17 -1.65,-1.46 -4.18,-2.63 -7.6,-3.51 -3.42,-0.88 -7.79,-1.71 -13.11,-2.47 -5.32,-0.88 -10.45,-1.96 -15.39,-3.23 -4.94,-1.26 -9.31,-2.95 -13.11,-5.04 -3.8,-2.09 -6.81,-4.75 -9.02,-7.98 -2.22,-3.23 -3.32,-7.19 -3.32,-11.88 0,-4.69 1.11,-8.61 3.32,-12.16 2.21,-3.54 5.32,-6.52 9.31,-8.93 3.99,-2.41 8.67,-4.24 14.06,-5.51 5.38,-1.26 11.18,-1.9 17.38,-1.9 9.37,0 17.16,1.36 23.37,4.08 6.2,2.73 10.86,6.53 13.97,11.4 3.1,4.88 4.65,10.48 4.65,16.82 h -21.85 c -1.02,-4.68 -3.04,-8.08 -6.08,-10.17 -3.04,-2.09 -7.73,-3.13 -14.06,-3.13 -6.33,0 -10.9,0.95 -14.06,2.85 -3.17,1.9 -4.75,4.5 -4.75,7.79 0,2.66 0.98,4.72 2.94,6.17 1.96,1.46 4.87,2.63 8.74,3.51 3.86,0.89 8.71,1.84 14.54,2.85 4.94,1.02 9.66,2.16 14.16,3.42 4.49,1.27 8.52,2.88 12.06,4.84 3.54,1.97 6.37,4.56 8.46,7.79 2.09,3.23 3.13,7.32 3.13,12.25 0,6.08 -1.74,11.21 -5.22,15.39 -3.49,4.18 -8.46,7.38 -14.92,9.59 -6.46,2.21 -14.19,3.33 -23.18,3.33 -7.98,0 -14.85,-0.86 -20.62,-2.57 -5.77,-1.71 -10.54,-3.92 -14.34,-6.65 -3.8,-2.72 -6.75,-5.63 -8.84,-8.74 -2.09,-3.1 -3.51,-6.05 -4.27,-8.83 -0.76,-2.79 -1.02,-5.06 -0.76,-6.84 z"
             id="path13" />
          <path
             class="st0"
             d="m 341.91,650.57 h 23.56 l 1.14,25.08 V 783 h -24.7 z m 68.78,96.71 c -8.36,0 -15.48,-1.49 -21.38,-4.46 -5.89,-2.98 -10.67,-6.9 -14.34,-11.78 -3.67,-4.88 -6.4,-10.23 -8.17,-16.05 -1.78,-5.83 -2.66,-11.53 -2.66,-17.1 0,-6.96 0.86,-13.42 2.57,-19.38 1.71,-5.95 4.4,-11.18 8.07,-15.67 3.67,-4.5 8.46,-8.01 14.35,-10.55 5.89,-2.53 13.08,-3.8 21.56,-3.8 9.5,0 18.05,2.09 25.65,6.27 7.6,4.18 13.65,9.97 18.14,17.38 4.5,7.41 6.75,15.99 6.75,25.75 0,9.76 -2.28,18.71 -6.84,26.12 -4.56,7.41 -10.64,13.14 -18.24,17.2 -7.6,4.05 -16.09,6.08 -25.46,6.08 z m -7.98,-19.19 c 6.71,0 12.57,-1.26 17.58,-3.8 5,-2.53 8.86,-6.05 11.59,-10.54 2.72,-4.5 4.08,-9.79 4.08,-15.87 0,-9.12 -2.88,-16.46 -8.65,-22.04 -5.76,-5.57 -13.96,-8.36 -24.6,-8.36 -6.72,0 -12.83,1.21 -18.33,3.61 -5.51,2.41 -9.85,5.86 -13.02,10.36 -3.17,4.5 -4.75,9.97 -4.75,16.43 0,6.08 1.46,11.37 4.37,15.87 2.91,4.5 7.09,8.01 12.54,10.54 5.45,2.54 11.84,3.8 19.19,3.8 z"
             id="path14" />
          <path
             class="st0"
             d="m 558.89,713.65 h 23.94 c -1.02,6.46 -3.71,12.22 -8.08,17.29 -4.37,5.07 -10.29,9.06 -17.76,11.97 -7.48,2.91 -16.6,4.37 -27.36,4.37 -12.04,0 -22.67,-1.93 -31.92,-5.79 -9.25,-3.86 -16.47,-9.47 -21.66,-16.82 -5.2,-7.34 -7.79,-16.21 -7.79,-26.6 0,-10.39 2.53,-19.29 7.6,-26.7 5.06,-7.41 12.13,-13.08 21.18,-17 9.05,-3.92 19.67,-5.89 31.83,-5.89 12.16,0 22.73,1.96 30.97,5.89 8.23,3.93 14.34,9.85 18.33,17.76 3.99,7.92 5.67,18.02 5.04,30.31 h -90.06 c 0.63,4.81 2.44,9.18 5.41,13.11 2.98,3.93 7.03,7.03 12.16,9.31 5.13,2.28 11.24,3.42 18.33,3.42 7.85,0 14.41,-1.36 19.67,-4.08 5.25,-2.72 8.65,-6.24 10.17,-10.54 z m -31.16,-46.36 c -9.12,0 -16.53,2 -22.23,5.99 -5.7,3.99 -9.38,8.9 -11.02,14.72 h 64.22 c -0.64,-6.33 -3.64,-11.37 -9.03,-15.11 -5.38,-3.73 -12.7,-5.6 -21.95,-5.6 z"
             id="path15" />
        </g>
        <g
           class="st12"
           id="g16">
          <path
             class="st6"
             d="m 598.22,622.07 h 25.27 V 745 h -25.27 z m 52.63,63.08 -0.19,-10.64 82.84,70.49 h -36.48 l -73.72,-64.6 65.55,-58.33 h 35.91 z"
             id="path16" />
        </g>
        <g
           class="st12"
           id="g17">
          <path
             class="st3"
             d="m 598.22,622.07 h 25.27 V 745 h -25.27 z m 52.63,63.08 -0.19,-10.64 82.84,70.49 h -36.48 l -73.72,-64.6 65.55,-58.33 h 35.91 z"
             id="path17" />
        </g>
        <g
           id="g20">
          <path
             class="st0"
             d="M 739.2,713.65 H 762 c 1.39,4.31 4.27,7.82 8.64,10.54 4.37,2.72 10.1,4.08 17.2,4.08 4.81,0 8.55,-0.44 11.21,-1.33 2.66,-0.88 4.5,-2.19 5.51,-3.9 1.01,-1.71 1.52,-3.64 1.52,-5.79 0,-2.66 -0.83,-4.72 -2.47,-6.17 -1.65,-1.46 -4.18,-2.63 -7.6,-3.51 -3.42,-0.88 -7.79,-1.71 -13.11,-2.47 -5.32,-0.88 -10.45,-1.96 -15.39,-3.23 -4.94,-1.26 -9.31,-2.95 -13.11,-5.04 -3.8,-2.09 -6.81,-4.75 -9.02,-7.98 -2.22,-3.23 -3.33,-7.19 -3.33,-11.88 0,-4.69 1.11,-8.61 3.33,-12.16 2.21,-3.54 5.32,-6.52 9.31,-8.93 3.99,-2.41 8.67,-4.24 14.06,-5.51 5.38,-1.26 11.18,-1.9 17.38,-1.9 9.37,0 17.16,1.36 23.37,4.08 6.2,2.73 10.86,6.53 13.96,11.4 3.1,4.88 4.65,10.48 4.65,16.82 h -21.85 c -1.01,-4.68 -3.04,-8.08 -6.08,-10.17 -3.04,-2.09 -7.73,-3.13 -14.06,-3.13 -6.33,0 -10.9,0.95 -14.06,2.85 -3.17,1.9 -4.75,4.5 -4.75,7.79 0,2.66 0.98,4.72 2.94,6.17 1.96,1.46 4.88,2.63 8.74,3.51 3.86,0.89 8.71,1.84 14.54,2.85 4.94,1.02 9.66,2.16 14.16,3.42 4.49,1.27 8.52,2.88 12.06,4.84 3.54,1.97 6.37,4.56 8.46,7.79 2.09,3.23 3.13,7.32 3.13,12.25 0,6.08 -1.74,11.21 -5.22,15.39 -3.49,4.18 -8.46,7.38 -14.92,9.59 -6.46,2.21 -14.19,3.33 -23.18,3.33 -7.98,0 -14.85,-0.86 -20.62,-2.57 -5.77,-1.71 -10.54,-3.92 -14.34,-6.65 -3.8,-2.72 -6.75,-5.63 -8.84,-8.74 -2.09,-3.1 -3.51,-6.05 -4.27,-8.83 -0.76,-2.79 -1.02,-5.06 -0.76,-6.84 z"
             id="path18" />
          <path
             class="st0"
             d="m 929.58,713.65 h 23.94 c -1.02,6.46 -3.71,12.22 -8.08,17.29 -4.37,5.07 -10.29,9.06 -17.76,11.97 -7.48,2.91 -16.6,4.37 -27.36,4.37 -12.04,0 -22.67,-1.93 -31.92,-5.79 -9.25,-3.86 -16.47,-9.47 -21.66,-16.82 -5.2,-7.34 -7.79,-16.21 -7.79,-26.6 0,-10.39 2.53,-19.29 7.6,-26.7 5.06,-7.41 12.13,-13.08 21.18,-17 9.05,-3.92 19.67,-5.89 31.83,-5.89 12.16,0 22.73,1.96 30.97,5.89 8.23,3.93 14.34,9.85 18.33,17.76 3.99,7.92 5.67,18.02 5.04,30.31 h -90.06 c 0.63,4.81 2.44,9.18 5.41,13.11 2.98,3.93 7.03,7.03 12.16,9.31 5.13,2.28 11.24,3.42 18.33,3.42 7.85,0 14.41,-1.36 19.67,-4.08 5.25,-2.72 8.65,-6.24 10.17,-10.54 z m -31.16,-46.36 c -9.12,0 -16.53,2 -22.23,5.99 -5.7,3.99 -9.38,8.9 -11.02,14.72 h 64.22 c -0.64,-6.33 -3.64,-11.37 -9.03,-15.11 -5.38,-3.73 -12.7,-5.6 -21.95,-5.6 z"
             id="path19" />
          <path
             class="st0"
             d="m 957.7,650.57 h 73.34 v 19.19 H 957.7 Z m 24.32,-25.84 h 24.7 V 745 h -24.7 z"
             id="path20" />
        </g>
      </g>
      <g
         class="st12"
         id="g22">
        <text
           class="st8"
           transform="translate(190,838)"
           id="text21"><tspan
             x="0"
             y="0"
             id="tspan21">SPEC</tspan></text>
      </g>
      <line
         class="st1"
         x1="338"
         y1="821"
         x2="388"
         y2="821"
         id="line22" />
      <g
         class="st12"
         id="g23">
        <text
           class="st8"
           transform="translate(404,838)"
           id="text22"><tspan
             x="0"
             y="0"
             id="tspan22">BUILD</tspan></text>
      </g>
      <line
         class="st1"
         x1="603"
         y1="821"
         x2="653"
         y2="821"
         id="line23" />
      <g
         class="st12"
         id="g24">
        <text
           class="st8"
           transform="translate(672,838)"
           id="text23"><tspan
             x="0"
             y="0"
             id="tspan23">SHIP</tspan></text>
      </g>
    </g>
  </g>
</svg>
