<svg xmlns="http://www.w3.org/2000/svg" viewBox="0 0 120 120" width="256" height="256"><rect width="120" height="120" rx="20" fill="#12141c"/><g transform="translate(-4,6) scale(1)"><polygon points="36.0,24.0 86.0,24.0 99.0,15.0 49.0,15.0" fill="#B4FF39" stroke="none" stroke-width="0" stroke-linejoin="round"/><polygon points="86.0,24.0 86.0,41.0 99.0,32.0 99.0,15.0" fill="#B4FF39" stroke="none" stroke-width="0" stroke-linejoin="round"/><polygon points="86.0,41.0 53.0,41.0 66.0,32.0 99.0,32.0" fill="#B4FF39" stroke="none" stroke-width="0" stroke-linejoin="round"/><polygon points="53.0,41.0 53.0,53.0 66.0,44.0 66.0,32.0" fill="#B4FF39" stroke="none" stroke-width="0" stroke-linejoin="round"/><polygon points="53.0,53.0 72.0,53.0 85.0,44.0 66.0,44.0" fill="#B4FF39" stroke="none" stroke-width="0" stroke-linejoin="round"/><polygon points="72.0,53.0 72.0,70.0 85.0,61.0 85.0,44.0" fill="#B4FF39" stroke="none" stroke-width="0" stroke-linejoin="round"/><polygon points="72.0,70.0 53.0,70.0 66.0,61.0 85.0,61.0" fill="#B4FF39" stroke="none" stroke-width="0" stroke-linejoin="round"/><polygon points="53.0,70.0 53.0,96.0 66.0,87.0 66.0,61.0" fill="#B4FF39" stroke="none" stroke-width="0" stroke-linejoin="round"/><polygon points="53.0,96.0 36.0,96.0 49.0,87.0 66.0,87.0" fill="#B4FF39" stroke="none" stroke-width="0" stroke-linejoin="round"/><polygon points="36.0,96.0 36.0,24.0 49.0,15.0 49.0,87.0" fill="#B4FF39" stroke="none" stroke-width="0" stroke-linejoin="round"/><polygon points="36.0,24.0 86.0,24.0 86.0,41.0 53.0,41.0 53.0,53.0 72.0,53.0 72.0,70.0 53.0,70.0 53.0,96.0 36.0,96.0" fill="#ffffff"/></g></svg>