<svg xmlns="http://www.w3.org/2000/svg" viewBox="0 0 1300 210" width="1300" height="210"><g transform="translate(-31,35) scale(1.19)"><polygon points="36.0,24.0 86.0,24.0 99.0,15.0 49.0,15.0" fill="#B4FF39" stroke="#e4ffb0" stroke-width="1.3" stroke-linejoin="round"/><polygon points="86.0,24.0 86.0,41.0 99.0,32.0 99.0,15.0" fill="#B4FF39" stroke="#e4ffb0" stroke-width="1.3" stroke-linejoin="round"/><polygon points="86.0,41.0 53.0,41.0 66.0,32.0 99.0,32.0" fill="#B4FF39" stroke="#e4ffb0" stroke-width="1.3" stroke-linejoin="round"/><polygon points="53.0,41.0 53.0,53.0 66.0,44.0 66.0,32.0" fill="#B4FF39" stroke="#e4ffb0" stroke-width="1.3" stroke-linejoin="round"/><polygon points="53.0,53.0 72.0,53.0 85.0,44.0 66.0,44.0" fill="#B4FF39" stroke="#e4ffb0" stroke-width="1.3" stroke-linejoin="round"/><polygon points="72.0,53.0 72.0,70.0 85.0,61.0 85.0,44.0" fill="#B4FF39" stroke="#e4ffb0" stroke-width="1.3" stroke-linejoin="round"/><polygon points="72.0,70.0 53.0,70.0 66.0,61.0 85.0,61.0" fill="#B4FF39" stroke="#e4ffb0" stroke-width="1.3" stroke-linejoin="round"/><polygon points="53.0,70.0 53.0,96.0 66.0,87.0 66.0,61.0" fill="#B4FF39" stroke="#e4ffb0" stroke-width="1.3" stroke-linejoin="round"/><polygon points="53.0,96.0 36.0,96.0 49.0,87.0 66.0,87.0" fill="#B4FF39" stroke="#e4ffb0" stroke-width="1.3" stroke-linejoin="round"/><polygon points="36.0,96.0 36.0,24.0 49.0,15.0 49.0,87.0" fill="#B4FF39" stroke="#e4ffb0" stroke-width="1.3" stroke-linejoin="round"/><polygon points="36.0,24.0 86.0,24.0 86.0,41.0 53.0,41.0 53.0,53.0 72.0,53.0 72.0,70.0 53.0,70.0 53.0,96.0 36.0,96.0" fill="#ffffff"/></g><text x="96" y="150" font-family="Jost" font-size="120" letter-spacing="6"><tspan font-weight="700" fill="#ffffff">OR</tspan><tspan font-weight="400" fill="#B4FF39">ECTRA</tspan></text></svg>